<svg width="41" height="41" viewBox="0 0 41 41" fill="none" xmlns="http://www.w3.org/2000/svg">
<path fill-rule="evenodd" clip-rule="evenodd" d="M39.1871 1.64757C38.0647 0.566396 36.5581 -0.0255896 34.9983 0.000848986C33.4386 0.0272876 31.9531 0.67027 30.8681 1.78886L20.5063 12.159L10.1268 1.79459C9.58253 1.2347 8.93192 0.788404 8.21301 0.482098C7.4941 0.175791 6.72115 0.0159628 5.93948 0.0108899C5.15781 0.0058171 4.38305 0.155742 3.66021 0.452692C2.93737 0.749642 2.28106 1.18731 1.72949 1.74009C1.17793 2.29287 0.742225 2.94963 0.447739 3.67225C0.153253 4.39487 0.00597873 5.16863 0.0143787 5.94868C0.0227787 6.72873 0.18663 7.49965 0.496609 8.21578C0.806588 8.93192 1.25635 9.57916 1.81969 10.12L12.1991 20.4844L1.83729 30.8603C1.26482 31.4017 0.807179 32.0525 0.491578 32.7738C0.175977 33.4952 0.00913359 34.2725 0.000364557 35.0596C-0.00840448 35.8466 0.141101 36.6272 0.440552 37.3554C0.740004 38.0835 1.18324 38.7443 1.74351 39.2983C2.30377 39.8523 2.96987 40.2885 3.70225 40.5807C4.43463 40.8728 5.21813 41.0148 6.00668 40.9988C6.79523 40.9828 7.57254 40.809 8.29242 40.4874C9.01231 40.1658 9.66037 39.7031 10.1976 39.1269L20.5534 28.7682L30.9271 39.1211C31.4744 39.6662 32.124 40.0982 32.8387 40.3927C33.5535 40.6873 34.3192 40.8389 35.0925 40.8381C35.8658 40.8373 36.6314 40.6838 37.3455 40.3877C38.0597 40.0916 38.7085 39.6588 39.2547 39.1125C39.8009 38.5662 40.2341 37.9173 40.5293 37.204C40.8244 36.4907 40.9757 35.7266 40.9748 34.9548C40.974 34.1831 40.8209 33.4191 40.5242 32.7064C40.2275 31.9937 39.7931 31.3466 39.2457 30.8015L28.8605 20.4428L39.2223 10.0612C39.7865 9.51235 40.2343 8.85591 40.5397 8.13115C40.845 7.4064 41.0016 6.62803 41 5.84182C40.9983 5.0556 40.8384 4.27811 40.53 3.55463C40.2216 2.83115 39.7711 2.17681 39.2047 1.63035L39.1871 1.64757Z" fill="url(#paint0_linear_1_527)"/>
<defs>
<linearGradient id="paint0_linear_1_527" x1="0" y1="0" x2="41" y2="41" gradientUnits="userSpaceOnUse">
<stop stop-color="white"/>
<stop offset="1" stop-color="white"/>
</linearGradient>
</defs>
</svg>
