<svg width="121" height="121" viewBox="0 0 121 121" fill="none" xmlns="http://www.w3.org/2000/svg">
<path fill-rule="evenodd" clip-rule="evenodd" d="M60.5 0.988281C27.3636 0.988281 0.5 27.6911 0.5 60.629C0.5 93.5669 27.3636 120.27 60.5 120.27C93.6364 120.27 120.5 93.5669 120.5 60.629C120.5 27.6911 93.6364 0.988281 60.5 0.988281ZM86.5073 50.5443C86.9862 50.0002 87.3507 49.3663 87.5796 48.6801C87.8084 47.9938 87.8968 47.269 87.8397 46.5483C87.7825 45.8276 87.5809 45.1255 87.2468 44.4833C86.9126 43.8412 86.4526 43.272 85.8939 42.8091C85.3352 42.3463 84.6889 41.9992 83.9933 41.7883C83.2976 41.5774 82.5665 41.5069 81.843 41.581C81.1195 41.6551 80.4182 41.8722 79.7804 42.2197C79.1426 42.5672 78.5812 43.0379 78.1291 43.6043L54.6745 71.5758L42.5382 59.5067C41.5094 58.519 40.1316 57.9725 38.7015 57.9849C37.2713 57.9972 35.9032 58.5675 34.8919 59.5727C33.8806 60.578 33.3069 61.9379 33.2945 63.3595C33.2821 64.7811 33.8319 66.1506 34.8255 67.1732L51.1891 83.4389C51.725 83.9713 52.3667 84.3869 53.0732 84.6591C53.7797 84.9314 54.5354 85.0543 55.2924 85.0202C56.0493 84.986 56.7908 84.7954 57.4695 84.4606C58.1483 84.1258 58.7494 83.6541 59.2345 83.0756L86.5073 50.5443Z" fill="#1ACD54"/>
</svg>
